<svg xmlns="http://www.w3.org/2000/svg" style="display: none">
<symbol id="icons-sun" viewBox="0 0 24 24"><g clip-path='url(#clip0_803_43557)'><path d='M12 16C14.2091 16 16 14.2091 16 12C16 9.79086 14.2091 8 12 8C9.79086 8 8 9.79086 8 12C8 14.2091 9.79086 16 12 16Z' stroke='#777E90' stroke-width='2' stroke-linecap='round' stroke-linejoin='round'/><path d='M3 12H4M12 3V4M20 12H21M12 20V21M5.6 5.6L6.3 6.3M18.4 5.6L17.7 6.3M17.7 17.7L18.4 18.4M6.3 17.7L5.6 18.4' stroke='#777E90' stroke-width='2' stroke-linecap='round' stroke-linejoin='round'/></g><defs><clipPath id='clip0_803_43557'><rect width='24' height='24' fill='white'/></clipPath></defs></symbol>
<symbol id="icons-avatar" viewBox="0 0 64 64"><mask id="mask0" mask-type="alpha" maskUnits="userSpaceOnUse" x="0" y="0" width="64" height="64">
<path d="M32 64C49.6731 64 64 49.6731 64 32C64 14.3269 49.6731 0 32 0C14.3269 0 0 14.3269 0 32C0 49.6731 14.3269 64 32 64Z" fill="white"/>
</mask>
<g mask="url(#mask0)">
<path d="M64 0H0V64H64V0Z" fill="#758696"/>
<g filter="url(#filter0_d)">
<path d="M48.2909 50.5423L39.6517 46.3394C38.8369 45.9425 38.3304 45.1453 38.3304 44.2582V41.2829C38.5375 41.0365 38.7555 40.7558 38.9807 40.4461C40.1011 38.9061 40.9992 37.1918 41.6521 35.3429C42.9281 34.7736 43.7565 33.546 43.7565 32.16V28.64C43.7565 27.7925 43.431 26.9715 42.8522 26.33V21.6493C42.9028 21.1653 43.1018 18.2841 40.9603 15.9073C39.1027 13.8454 36.0886 12.8 32 12.8C27.9114 12.8 24.8973 13.8454 23.0397 15.9064C20.8982 18.2833 21.0972 21.1653 21.1478 21.6493V26.33C20.569 26.9715 20.2435 27.7925 20.2435 28.64V32.16C20.2435 33.2309 20.7436 34.2297 21.5973 34.8959C22.4257 38.0877 24.1593 40.4927 24.7652 41.2645V44.1764C24.7652 45.0282 24.2877 45.8097 23.5199 46.218L15.4522 50.5001C12.8287 51.8931 11.2 54.563 11.2 57.4705V60.32C11.2 64.4965 24.8059 65.6 32 65.6C39.1941 65.6 52.8 64.4965 52.8 60.32V57.6421C52.8 54.6167 51.0718 51.8957 48.2909 50.5423Z" fill="black"/>
</g>
<path d="M48.2909 50.5423L39.6517 46.3394C38.8369 45.9425 38.3304 45.1453 38.3304 44.2582V41.2829C38.5375 41.0365 38.7555 40.7558 38.9807 40.4461C40.1011 38.9061 40.9992 37.1918 41.6521 35.3429C42.9281 34.7736 43.7565 33.546 43.7565 32.16V28.64C43.7565 27.7925 43.431 26.9715 42.8522 26.33V21.6493C42.9028 21.1653 43.1018 18.2841 40.9603 15.9073C39.1027 13.8454 36.0886 12.8 32 12.8C27.9114 12.8 24.8973 13.8454 23.0397 15.9064C20.8982 18.2833 21.0972 21.1653 21.1478 21.6493V26.33C20.569 26.9715 20.2435 27.7925 20.2435 28.64V32.16C20.2435 33.2309 20.7436 34.2297 21.5973 34.8959C22.4257 38.0877 24.1593 40.4927 24.7652 41.2645V44.1764C24.7652 45.0282 24.2877 45.8097 23.5199 46.218L15.4522 50.5001C12.8287 51.8931 11.2 54.563 11.2 57.4705V60.32C11.2 64.4965 24.8059 65.6 32 65.6C39.1941 65.6 52.8 64.4965 52.8 60.32V57.6421C52.8 54.6167 51.0718 51.8957 48.2909 50.5423Z" fill="white"/>
</g>
<defs>
<filter id="filter0_d" x="3.2" y="8.79999" width="57.6" height="68.8" filterUnits="userSpaceOnUse" color-interpolation-filters="sRGB">
<feFlood flood-opacity="0" result="BackgroundImageFix"/>
<feColorMatrix in="SourceAlpha" type="matrix" values="0 0 0 0 0 0 0 0 0 0 0 0 0 0 0 0 0 0 127 0"/>
<feOffset dy="4"/>
<feGaussianBlur stdDeviation="4"/>
<feColorMatrix type="matrix" values="0 0 0 0 0 0 0 0 0 0 0 0 0 0 0 0 0 0 0.161458 0"/>
<feBlend mode="normal" in2="BackgroundImageFix" result="effect1_dropShadow"/>
<feBlend mode="normal" in="SourceGraphic" in2="effect1_dropShadow" result="shape"/>
</filter>
</defs></symbol>
<symbol id="icons-lang" viewBox="0 0 24 24"><path d='M4 5H11M9 3V5C9 9.418 6.761 13 4 13' stroke='#777E90' stroke-width='1.5' stroke-linecap='round' stroke-linejoin='round'/><path d='M5 9C4.997 11.144 7.952 12.908 11.7 13M12 20L16 11L20 20M19.1 18H12.9' stroke='#777E90' stroke-width='1.5' stroke-linecap='round' stroke-linejoin='round'/></symbol>
<symbol id="icons-notifications" viewBox="0 0 24 24"><path fill-rule='evenodd' clip-rule='evenodd' d='M3.50083 13.7871V13.5681C3.53295 12.9202 3.7406 12.2925 4.10236 11.7496C4.7045 11.0975 5.1167 10.2983 5.29571 9.43598C5.29571 8.7695 5.29571 8.0935 5.35393 7.42703C5.65469 4.21842 8.82728 2 11.9611 2H12.0387C15.1725 2 18.345 4.21842 18.6555 7.42703C18.7137 8.0935 18.6555 8.7695 18.704 9.43598C18.8854 10.3003 19.2972 11.1019 19.8974 11.7591C20.2618 12.2972 20.4698 12.9227 20.4989 13.5681V13.7776C20.5206 14.648 20.2208 15.4968 19.6548 16.1674C18.907 16.9515 17.8921 17.4393 16.8024 17.5384C13.607 17.8812 10.383 17.8812 7.18762 17.5384C6.09914 17.435 5.08576 16.9479 4.33521 16.1674C3.778 15.4963 3.48224 14.6526 3.50083 13.7871Z' stroke='#808191' stroke-width='1.5' stroke-linecap='round' stroke-linejoin='round'/><path opacity='0.5' d='M9.55469 20.8516C10.054 21.4782 10.7871 21.8838 11.592 21.9785C12.3968 22.0732 13.2069 21.8493 13.843 21.3562C14.0387 21.2103 14.2147 21.0408 14.3669 20.8516' stroke='#808191' stroke-width='1.5' stroke-linecap='round' stroke-linejoin='round'/></symbol>
</svg>